G75*
G70*
%OFA0B0*%
%FSLAX24Y24*%
%IPPOS*%
%LPD*%
%AMOC8*
5,1,8,0,0,1.08239X$1,22.5*
%
%ADD10C,0.0740*%
%ADD11C,0.0520*%
%ADD12C,0.0520*%
%ADD13OC8,0.0520*%
%ADD14C,0.0600*%
%ADD15R,0.0740X0.0740*%
%ADD16C,0.0100*%
D10*
X003600Y001550D03*
X004600Y001550D03*
X004600Y002550D03*
X003600Y002550D03*
X003600Y003550D03*
X004600Y003550D03*
X005600Y003550D03*
X006600Y003550D03*
X007600Y003550D03*
X008600Y003550D03*
X008600Y002550D03*
X008600Y001550D03*
X009600Y001550D03*
X010600Y001550D03*
X011600Y001550D03*
X012600Y001550D03*
X013600Y001550D03*
X014600Y001550D03*
X015600Y001550D03*
X016600Y001550D03*
X017600Y001550D03*
X018600Y001550D03*
X019600Y001550D03*
X020600Y001550D03*
X021600Y001550D03*
X022600Y001550D03*
X023600Y001550D03*
X024600Y001550D03*
X023600Y012550D03*
X022600Y012550D03*
X021600Y012550D03*
X020600Y012550D03*
X019600Y012550D03*
X018600Y012550D03*
X017600Y012550D03*
X016600Y012550D03*
X015600Y012550D03*
X014600Y012550D03*
X013600Y012550D03*
X012600Y012550D03*
X011600Y012550D03*
X010600Y012550D03*
X009600Y012550D03*
X008600Y012550D03*
X007600Y012550D03*
X006600Y012550D03*
X005600Y012550D03*
X014600Y018050D03*
X014600Y019050D03*
X014600Y020050D03*
X007600Y002550D03*
X007600Y001550D03*
X006600Y001550D03*
X005600Y001550D03*
X005600Y002550D03*
X006600Y002550D03*
D11*
X006100Y005290D02*
X006100Y005810D01*
X007100Y005810D02*
X007100Y005290D01*
X008100Y005290D02*
X008100Y005810D01*
X009100Y005810D02*
X009100Y005290D01*
X010100Y005290D02*
X010100Y005810D01*
X011100Y005810D02*
X011100Y005290D01*
X012100Y005290D02*
X012100Y005810D01*
X013100Y004310D02*
X013100Y003790D01*
X014100Y003790D02*
X014100Y004310D01*
X015100Y004310D02*
X015100Y003790D01*
X016100Y003790D02*
X016100Y004310D01*
X017100Y004310D02*
X017100Y003790D01*
X018100Y003790D02*
X018100Y004310D01*
X019100Y004310D02*
X019100Y003790D01*
X020100Y003790D02*
X020100Y004310D01*
X021100Y004310D02*
X021100Y003790D01*
X022100Y003790D02*
X022100Y004310D01*
X023100Y004310D02*
X023100Y003790D01*
X024100Y003790D02*
X024100Y004310D01*
X025100Y004310D02*
X025100Y003790D01*
X026100Y003790D02*
X026100Y004310D01*
X026100Y009790D02*
X026100Y010310D01*
X025100Y010310D02*
X025100Y009790D01*
X024100Y009790D02*
X024100Y010310D01*
X023100Y010310D02*
X023100Y009790D01*
X022100Y009790D02*
X022100Y010310D01*
X021100Y010310D02*
X021100Y009790D01*
X020100Y009790D02*
X020100Y010310D01*
X019100Y010310D02*
X019100Y009790D01*
X018100Y009790D02*
X018100Y010310D01*
X017100Y010310D02*
X017100Y009790D01*
X016100Y009790D02*
X016100Y010310D01*
X015100Y010310D02*
X015100Y009790D01*
X014100Y009790D02*
X014100Y010310D01*
X013100Y010310D02*
X013100Y009790D01*
X012100Y008810D02*
X012100Y008290D01*
X011100Y008290D02*
X011100Y008810D01*
X010100Y008810D02*
X010100Y008290D01*
X009100Y008290D02*
X009100Y008810D01*
X008100Y008810D02*
X008100Y008290D01*
X007100Y008290D02*
X007100Y008810D01*
X006100Y008810D02*
X006100Y008290D01*
X005100Y008290D02*
X005100Y008810D01*
X004100Y008810D02*
X004100Y008290D01*
X003100Y008290D02*
X003100Y008810D01*
X002100Y008810D02*
X002100Y008290D01*
X001100Y008290D02*
X001100Y008810D01*
X001100Y005810D02*
X001100Y005290D01*
X002100Y005290D02*
X002100Y005810D01*
X003100Y005810D02*
X003100Y005290D01*
X004100Y005290D02*
X004100Y005810D01*
X005100Y005810D02*
X005100Y005290D01*
D12*
X022100Y020550D03*
D13*
X021100Y020550D03*
X021100Y021550D03*
X022100Y021550D03*
X023100Y021550D03*
X023100Y020550D03*
X024100Y020550D03*
X025100Y020550D03*
X025100Y019550D03*
X024100Y019550D03*
X024100Y018550D03*
X025100Y018550D03*
X025100Y017550D03*
X024100Y017550D03*
X024100Y016550D03*
X025100Y016550D03*
X025100Y015550D03*
X024100Y015550D03*
X023100Y015550D03*
X022100Y015550D03*
X021100Y015550D03*
X020100Y015550D03*
X019100Y015550D03*
X019100Y016550D03*
X019100Y017550D03*
X019100Y018550D03*
X018100Y018550D03*
X018100Y017550D03*
X018100Y016550D03*
X018100Y015550D03*
X019100Y014550D03*
X020100Y014550D03*
X021100Y014550D03*
X022100Y014550D03*
X023100Y014550D03*
X024100Y014550D03*
X019100Y019550D03*
X019100Y020550D03*
X020100Y020550D03*
X020100Y021550D03*
X019100Y021550D03*
X018100Y020550D03*
X018100Y019550D03*
X024100Y021550D03*
X012100Y015550D03*
X012100Y014050D03*
X009100Y014050D03*
X009100Y015550D03*
D14*
X007600Y014350D02*
X007600Y013750D01*
X006600Y013750D02*
X006600Y014350D01*
X005600Y014350D02*
X005600Y013750D01*
X003600Y013750D02*
X003600Y014350D01*
X002600Y014350D02*
X002600Y013750D01*
X001600Y013750D02*
X001600Y014350D01*
X005300Y018050D02*
X005900Y018050D01*
X005900Y019050D02*
X005300Y019050D01*
X005300Y020050D02*
X005900Y020050D01*
D15*
X004600Y012550D03*
D16*
X007700Y009450D01*
X008800Y009450D01*
X008800Y008250D01*
X009100Y008550D01*
X008800Y008250D02*
X008600Y008050D01*
X008600Y003550D01*
X008600Y002550D01*
X008600Y001550D01*
X008300Y001050D02*
X021600Y001050D01*
X021600Y001550D01*
X021800Y003350D02*
X023600Y001550D01*
X024600Y001550D02*
X024600Y002550D01*
X026100Y004050D01*
X024700Y003350D02*
X024700Y011050D01*
X025900Y012250D01*
X025900Y020950D01*
X024700Y022150D01*
X022500Y022150D01*
X022500Y019950D01*
X019100Y016550D01*
X018100Y016550D02*
X018100Y015550D01*
X018700Y015550D02*
X018700Y018150D01*
X019100Y018550D01*
X018500Y017950D02*
X018100Y017550D01*
X018100Y016550D01*
X018700Y015550D02*
X017100Y013950D01*
X017100Y012250D01*
X015700Y010850D01*
X015700Y009550D01*
X017500Y007750D01*
X017500Y007650D01*
X021100Y004050D01*
X021800Y003350D02*
X015500Y003350D01*
X015500Y006750D01*
X010100Y012150D01*
X010100Y013050D01*
X009100Y014050D01*
X009100Y015550D01*
X008700Y015750D02*
X011800Y018850D01*
X014100Y018850D01*
X014100Y012250D01*
X014500Y011850D01*
X014500Y009450D01*
X015700Y008250D01*
X015700Y004450D01*
X016100Y004050D01*
X017100Y004050D02*
X015900Y005250D01*
X015900Y008350D01*
X014700Y009550D01*
X014700Y011850D01*
X015100Y012250D01*
X015100Y018150D01*
X018900Y021950D01*
X021700Y021950D01*
X021700Y020950D01*
X022100Y020550D01*
X021100Y021550D02*
X020100Y021550D01*
X019100Y020550D01*
X018500Y019950D01*
X018500Y017950D01*
X016100Y018550D02*
X018100Y020550D01*
X016100Y018550D02*
X016100Y012250D01*
X015500Y011650D01*
X015500Y009450D01*
X016500Y008450D01*
X016500Y007650D01*
X020100Y004050D01*
X023100Y004050D02*
X023800Y003350D01*
X024700Y003350D01*
X024100Y004050D02*
X024500Y004450D01*
X024500Y011150D01*
X025700Y012350D01*
X025700Y020850D01*
X024600Y021950D01*
X022700Y021950D01*
X022700Y018750D01*
X019500Y015550D01*
X019500Y014950D01*
X019100Y014550D01*
X019400Y014150D02*
X020700Y014150D01*
X020700Y015150D01*
X021100Y015550D01*
X021700Y015150D02*
X022100Y015550D01*
X021700Y015150D02*
X021700Y014550D01*
X021100Y013950D01*
X021100Y012050D01*
X019100Y012050D01*
X017100Y010050D01*
X016100Y010050D02*
X018100Y012050D01*
X018100Y012850D01*
X019400Y014150D01*
X022100Y014550D02*
X023100Y014550D01*
X023700Y014550D02*
X023700Y017150D01*
X024100Y017550D01*
X024500Y018150D02*
X024100Y018550D01*
X024500Y018150D02*
X024500Y014350D01*
X023100Y012950D01*
X023100Y012050D01*
X021100Y010050D01*
X022100Y010050D02*
X024700Y012650D01*
X024700Y018950D01*
X024100Y019550D01*
X025100Y019550D02*
X025100Y020550D01*
X024100Y020550D01*
X024100Y021550D02*
X024700Y021550D01*
X025500Y020750D01*
X025500Y012450D01*
X023100Y010050D01*
X022100Y012050D02*
X022100Y012950D01*
X023700Y014550D01*
X024100Y014550D02*
X024100Y015550D01*
X025100Y018550D02*
X025100Y019550D01*
X026100Y021050D02*
X024800Y022350D01*
X015100Y022350D01*
X015100Y019550D01*
X014600Y019050D01*
X014600Y018850D01*
X014100Y018850D01*
X014100Y019050D02*
X014100Y019550D01*
X014600Y020050D01*
X014100Y019050D02*
X005600Y019050D01*
X005600Y018050D02*
X005600Y014050D01*
X005600Y013050D02*
X006600Y014050D01*
X006600Y013050D02*
X006600Y012550D01*
X006600Y013050D02*
X007900Y013050D01*
X008100Y012850D01*
X008100Y012050D01*
X008500Y012050D01*
X011500Y009050D01*
X011500Y008250D01*
X012500Y007250D01*
X012500Y005650D01*
X014100Y004050D01*
X014400Y003350D02*
X009500Y003350D01*
X009500Y009050D01*
X006500Y012050D01*
X005600Y012050D01*
X005600Y012550D01*
X005600Y013050D02*
X004100Y013050D01*
X004100Y012050D01*
X006900Y009250D01*
X007700Y009250D01*
X007700Y004250D01*
X008100Y003850D01*
X008100Y001250D01*
X008300Y001050D01*
X007600Y001550D02*
X007600Y002550D01*
X007600Y003550D01*
X006500Y004650D01*
X006500Y006950D01*
X005100Y005550D01*
X002100Y008550D01*
X002100Y012550D01*
X003600Y014050D01*
X007600Y014050D02*
X008700Y015150D01*
X008700Y015750D01*
X007600Y012550D02*
X007600Y012250D01*
X010500Y009350D01*
X010500Y008250D01*
X011700Y007050D01*
X011700Y004050D01*
X013100Y004050D01*
X014400Y003350D02*
X015100Y004050D01*
X020100Y010050D02*
X022100Y012050D01*
X026100Y010050D02*
X026100Y021050D01*
X007100Y008550D02*
X007100Y007550D01*
X006500Y006950D01*
X006600Y003550D02*
X006600Y003050D01*
X004600Y003050D01*
X004600Y003550D01*
X004600Y003050D02*
X004600Y002550D01*
X004600Y001550D01*
X003600Y001550D02*
X003600Y002550D01*
X003600Y003550D01*
X005600Y002550D02*
X005600Y001550D01*
X006600Y001550D02*
X006600Y002550D01*
X006600Y003050D01*
M02*
