%
M48
M72
T01C0.0320
T02C0.0400
%
T01
X1100Y5550
X2100Y5550
X3100Y5550
X4100Y5550
X5100Y5550
X6100Y5550
X7100Y5550
X8100Y5550
X9100Y5550
X10100Y5550
X11100Y5550
X12100Y5550
X13100Y4050
X14100Y4050
X15100Y4050
X16100Y4050
X17100Y4050
X18100Y4050
X19100Y4050
X20100Y4050
X21100Y4050
X22100Y4050
X23100Y4050
X24100Y4050
X25100Y4050
X26100Y4050
X26100Y10050
X25100Y10050
X24100Y10050
X23100Y10050
X22100Y10050
X21100Y10050
X20100Y10050
X19100Y10050
X18100Y10050
X17100Y10050
X16100Y10050
X15100Y10050
X14100Y10050
X13100Y10050
X12100Y8550
X11100Y8550
X10100Y8550
X9100Y8550
X8100Y8550
X7100Y8550
X6100Y8550
X5100Y8550
X4100Y8550
X3100Y8550
X2100Y8550
X1100Y8550
X9100Y14050
X9100Y15550
X12100Y15550
X12100Y14050
X18100Y15550
X18100Y16550
X18100Y17550
X18100Y18550
X19100Y18550
X19100Y17550
X19100Y16550
X19100Y15550
X20100Y15550
X21100Y15550
X22100Y15550
X23100Y15550
X24100Y15550
X25100Y15550
X25100Y16550
X24100Y16550
X24100Y17550
X25100Y17550
X25100Y18550
X24100Y18550
X24100Y19550
X25100Y19550
X25100Y20550
X24100Y20550
X24100Y21550
X23100Y21550
X23100Y20550
X22100Y20550
X21100Y20550
X21100Y21550
X22100Y21550
X20100Y21550
X19100Y21550
X19100Y20550
X20100Y20550
X19100Y19550
X18100Y19550
X18100Y20550
X19100Y14550
X20100Y14550
X21100Y14550
X22100Y14550
X23100Y14550
X24100Y14550
T02
X3600Y1550
X4600Y1550
X4600Y2550
X3600Y2550
X3600Y3550
X4600Y3550
X5600Y3550
X6600Y3550
X7600Y3550
X8600Y3550
X8600Y2550
X8600Y1550
X9600Y1550
X10600Y1550
X11600Y1550
X12600Y1550
X13600Y1550
X14600Y1550
X15600Y1550
X16600Y1550
X17600Y1550
X18600Y1550
X19600Y1550
X20600Y1550
X21600Y1550
X22600Y1550
X23600Y1550
X24600Y1550
X23600Y12550
X22600Y12550
X21600Y12550
X20600Y12550
X19600Y12550
X18600Y12550
X17600Y12550
X16600Y12550
X15600Y12550
X14600Y12550
X13600Y12550
X12600Y12550
X11600Y12550
X10600Y12550
X9600Y12550
X8600Y12550
X7600Y12550
X6600Y12550
X5600Y12550
X4600Y12550
X3600Y14050
X2600Y14050
X1600Y14050
X5600Y14050
X6600Y14050
X7600Y14050
X5600Y18050
X5600Y19050
X5600Y20050
X14600Y20050
X14600Y19050
X14600Y18050
X7600Y2550
X7600Y1550
X6600Y1550
X5600Y1550
X5600Y2550
X6600Y2550
M30
