G75*
G70*
%OFA0B0*%
%FSLAX24Y24*%
%IPPOS*%
%LPD*%
%AMOC8*
5,1,8,0,0,1.08239X$1,22.5*
%
%ADD10C,0.0000*%
D10*
X000100Y000100D02*
X000100Y049045D01*
X034470Y049045D01*
X034470Y000100D01*
X000100Y000100D01*
X004726Y002856D02*
X004728Y002900D01*
X004734Y002944D01*
X004744Y002987D01*
X004757Y003029D01*
X004775Y003069D01*
X004796Y003108D01*
X004820Y003145D01*
X004847Y003180D01*
X004878Y003212D01*
X004911Y003241D01*
X004947Y003267D01*
X004985Y003289D01*
X005025Y003308D01*
X005066Y003324D01*
X005109Y003336D01*
X005152Y003344D01*
X005196Y003348D01*
X005240Y003348D01*
X005284Y003344D01*
X005327Y003336D01*
X005370Y003324D01*
X005411Y003308D01*
X005451Y003289D01*
X005489Y003267D01*
X005525Y003241D01*
X005558Y003212D01*
X005589Y003180D01*
X005616Y003145D01*
X005640Y003108D01*
X005661Y003069D01*
X005679Y003029D01*
X005692Y002987D01*
X005702Y002944D01*
X005708Y002900D01*
X005710Y002856D01*
X005708Y002812D01*
X005702Y002768D01*
X005692Y002725D01*
X005679Y002683D01*
X005661Y002643D01*
X005640Y002604D01*
X005616Y002567D01*
X005589Y002532D01*
X005558Y002500D01*
X005525Y002471D01*
X005489Y002445D01*
X005451Y002423D01*
X005411Y002404D01*
X005370Y002388D01*
X005327Y002376D01*
X005284Y002368D01*
X005240Y002364D01*
X005196Y002364D01*
X005152Y002368D01*
X005109Y002376D01*
X005066Y002388D01*
X005025Y002404D01*
X004985Y002423D01*
X004947Y002445D01*
X004911Y002471D01*
X004878Y002500D01*
X004847Y002532D01*
X004820Y002567D01*
X004796Y002604D01*
X004775Y002643D01*
X004757Y002683D01*
X004744Y002725D01*
X004734Y002768D01*
X004728Y002812D01*
X004726Y002856D01*
X004726Y015848D02*
X004728Y015892D01*
X004734Y015936D01*
X004744Y015979D01*
X004757Y016021D01*
X004775Y016061D01*
X004796Y016100D01*
X004820Y016137D01*
X004847Y016172D01*
X004878Y016204D01*
X004911Y016233D01*
X004947Y016259D01*
X004985Y016281D01*
X005025Y016300D01*
X005066Y016316D01*
X005109Y016328D01*
X005152Y016336D01*
X005196Y016340D01*
X005240Y016340D01*
X005284Y016336D01*
X005327Y016328D01*
X005370Y016316D01*
X005411Y016300D01*
X005451Y016281D01*
X005489Y016259D01*
X005525Y016233D01*
X005558Y016204D01*
X005589Y016172D01*
X005616Y016137D01*
X005640Y016100D01*
X005661Y016061D01*
X005679Y016021D01*
X005692Y015979D01*
X005702Y015936D01*
X005708Y015892D01*
X005710Y015848D01*
X005708Y015804D01*
X005702Y015760D01*
X005692Y015717D01*
X005679Y015675D01*
X005661Y015635D01*
X005640Y015596D01*
X005616Y015559D01*
X005589Y015524D01*
X005558Y015492D01*
X005525Y015463D01*
X005489Y015437D01*
X005451Y015415D01*
X005411Y015396D01*
X005370Y015380D01*
X005327Y015368D01*
X005284Y015360D01*
X005240Y015356D01*
X005196Y015356D01*
X005152Y015360D01*
X005109Y015368D01*
X005066Y015380D01*
X005025Y015396D01*
X004985Y015415D01*
X004947Y015437D01*
X004911Y015463D01*
X004878Y015492D01*
X004847Y015524D01*
X004820Y015559D01*
X004796Y015596D01*
X004775Y015635D01*
X004757Y015675D01*
X004744Y015717D01*
X004734Y015760D01*
X004728Y015804D01*
X004726Y015848D01*
X013388Y033171D02*
X013390Y033215D01*
X013396Y033259D01*
X013406Y033302D01*
X013419Y033344D01*
X013437Y033384D01*
X013458Y033423D01*
X013482Y033460D01*
X013509Y033495D01*
X013540Y033527D01*
X013573Y033556D01*
X013609Y033582D01*
X013647Y033604D01*
X013687Y033623D01*
X013728Y033639D01*
X013771Y033651D01*
X013814Y033659D01*
X013858Y033663D01*
X013902Y033663D01*
X013946Y033659D01*
X013989Y033651D01*
X014032Y033639D01*
X014073Y033623D01*
X014113Y033604D01*
X014151Y033582D01*
X014187Y033556D01*
X014220Y033527D01*
X014251Y033495D01*
X014278Y033460D01*
X014302Y033423D01*
X014323Y033384D01*
X014341Y033344D01*
X014354Y033302D01*
X014364Y033259D01*
X014370Y033215D01*
X014372Y033171D01*
X014370Y033127D01*
X014364Y033083D01*
X014354Y033040D01*
X014341Y032998D01*
X014323Y032958D01*
X014302Y032919D01*
X014278Y032882D01*
X014251Y032847D01*
X014220Y032815D01*
X014187Y032786D01*
X014151Y032760D01*
X014113Y032738D01*
X014073Y032719D01*
X014032Y032703D01*
X013989Y032691D01*
X013946Y032683D01*
X013902Y032679D01*
X013858Y032679D01*
X013814Y032683D01*
X013771Y032691D01*
X013728Y032703D01*
X013687Y032719D01*
X013647Y032738D01*
X013609Y032760D01*
X013573Y032786D01*
X013540Y032815D01*
X013509Y032847D01*
X013482Y032882D01*
X013458Y032919D01*
X013437Y032958D01*
X013419Y032998D01*
X013406Y033040D01*
X013396Y033083D01*
X013390Y033127D01*
X013388Y033171D01*
X013388Y046557D02*
X013390Y046601D01*
X013396Y046645D01*
X013406Y046688D01*
X013419Y046730D01*
X013437Y046770D01*
X013458Y046809D01*
X013482Y046846D01*
X013509Y046881D01*
X013540Y046913D01*
X013573Y046942D01*
X013609Y046968D01*
X013647Y046990D01*
X013687Y047009D01*
X013728Y047025D01*
X013771Y047037D01*
X013814Y047045D01*
X013858Y047049D01*
X013902Y047049D01*
X013946Y047045D01*
X013989Y047037D01*
X014032Y047025D01*
X014073Y047009D01*
X014113Y046990D01*
X014151Y046968D01*
X014187Y046942D01*
X014220Y046913D01*
X014251Y046881D01*
X014278Y046846D01*
X014302Y046809D01*
X014323Y046770D01*
X014341Y046730D01*
X014354Y046688D01*
X014364Y046645D01*
X014370Y046601D01*
X014372Y046557D01*
X014370Y046513D01*
X014364Y046469D01*
X014354Y046426D01*
X014341Y046384D01*
X014323Y046344D01*
X014302Y046305D01*
X014278Y046268D01*
X014251Y046233D01*
X014220Y046201D01*
X014187Y046172D01*
X014151Y046146D01*
X014113Y046124D01*
X014073Y046105D01*
X014032Y046089D01*
X013989Y046077D01*
X013946Y046069D01*
X013902Y046065D01*
X013858Y046065D01*
X013814Y046069D01*
X013771Y046077D01*
X013728Y046089D01*
X013687Y046105D01*
X013647Y046124D01*
X013609Y046146D01*
X013573Y046172D01*
X013540Y046201D01*
X013509Y046233D01*
X013482Y046268D01*
X013458Y046305D01*
X013437Y046344D01*
X013419Y046384D01*
X013406Y046426D01*
X013396Y046469D01*
X013390Y046513D01*
X013388Y046557D01*
X026773Y046557D02*
X026775Y046601D01*
X026781Y046645D01*
X026791Y046688D01*
X026804Y046730D01*
X026822Y046770D01*
X026843Y046809D01*
X026867Y046846D01*
X026894Y046881D01*
X026925Y046913D01*
X026958Y046942D01*
X026994Y046968D01*
X027032Y046990D01*
X027072Y047009D01*
X027113Y047025D01*
X027156Y047037D01*
X027199Y047045D01*
X027243Y047049D01*
X027287Y047049D01*
X027331Y047045D01*
X027374Y047037D01*
X027417Y047025D01*
X027458Y047009D01*
X027498Y046990D01*
X027536Y046968D01*
X027572Y046942D01*
X027605Y046913D01*
X027636Y046881D01*
X027663Y046846D01*
X027687Y046809D01*
X027708Y046770D01*
X027726Y046730D01*
X027739Y046688D01*
X027749Y046645D01*
X027755Y046601D01*
X027757Y046557D01*
X027755Y046513D01*
X027749Y046469D01*
X027739Y046426D01*
X027726Y046384D01*
X027708Y046344D01*
X027687Y046305D01*
X027663Y046268D01*
X027636Y046233D01*
X027605Y046201D01*
X027572Y046172D01*
X027536Y046146D01*
X027498Y046124D01*
X027458Y046105D01*
X027417Y046089D01*
X027374Y046077D01*
X027331Y046069D01*
X027287Y046065D01*
X027243Y046065D01*
X027199Y046069D01*
X027156Y046077D01*
X027113Y046089D01*
X027072Y046105D01*
X027032Y046124D01*
X026994Y046146D01*
X026958Y046172D01*
X026925Y046201D01*
X026894Y046233D01*
X026867Y046268D01*
X026843Y046305D01*
X026822Y046344D01*
X026804Y046384D01*
X026791Y046426D01*
X026781Y046469D01*
X026775Y046513D01*
X026773Y046557D01*
X026773Y033171D02*
X026775Y033215D01*
X026781Y033259D01*
X026791Y033302D01*
X026804Y033344D01*
X026822Y033384D01*
X026843Y033423D01*
X026867Y033460D01*
X026894Y033495D01*
X026925Y033527D01*
X026958Y033556D01*
X026994Y033582D01*
X027032Y033604D01*
X027072Y033623D01*
X027113Y033639D01*
X027156Y033651D01*
X027199Y033659D01*
X027243Y033663D01*
X027287Y033663D01*
X027331Y033659D01*
X027374Y033651D01*
X027417Y033639D01*
X027458Y033623D01*
X027498Y033604D01*
X027536Y033582D01*
X027572Y033556D01*
X027605Y033527D01*
X027636Y033495D01*
X027663Y033460D01*
X027687Y033423D01*
X027708Y033384D01*
X027726Y033344D01*
X027739Y033302D01*
X027749Y033259D01*
X027755Y033215D01*
X027757Y033171D01*
X027755Y033127D01*
X027749Y033083D01*
X027739Y033040D01*
X027726Y032998D01*
X027708Y032958D01*
X027687Y032919D01*
X027663Y032882D01*
X027636Y032847D01*
X027605Y032815D01*
X027572Y032786D01*
X027536Y032760D01*
X027498Y032738D01*
X027458Y032719D01*
X027417Y032703D01*
X027374Y032691D01*
X027331Y032683D01*
X027287Y032679D01*
X027243Y032679D01*
X027199Y032683D01*
X027156Y032691D01*
X027113Y032703D01*
X027072Y032719D01*
X027032Y032738D01*
X026994Y032760D01*
X026958Y032786D01*
X026925Y032815D01*
X026894Y032847D01*
X026867Y032882D01*
X026843Y032919D01*
X026822Y032958D01*
X026804Y032998D01*
X026791Y033040D01*
X026781Y033083D01*
X026775Y033127D01*
X026773Y033171D01*
X029699Y022935D02*
X029701Y022979D01*
X029707Y023023D01*
X029717Y023066D01*
X029730Y023108D01*
X029748Y023148D01*
X029769Y023187D01*
X029793Y023224D01*
X029820Y023259D01*
X029851Y023291D01*
X029884Y023320D01*
X029920Y023346D01*
X029958Y023368D01*
X029998Y023387D01*
X030039Y023403D01*
X030082Y023415D01*
X030125Y023423D01*
X030169Y023427D01*
X030213Y023427D01*
X030257Y023423D01*
X030300Y023415D01*
X030343Y023403D01*
X030384Y023387D01*
X030424Y023368D01*
X030462Y023346D01*
X030498Y023320D01*
X030531Y023291D01*
X030562Y023259D01*
X030589Y023224D01*
X030613Y023187D01*
X030634Y023148D01*
X030652Y023108D01*
X030665Y023066D01*
X030675Y023023D01*
X030681Y022979D01*
X030683Y022935D01*
X030681Y022891D01*
X030675Y022847D01*
X030665Y022804D01*
X030652Y022762D01*
X030634Y022722D01*
X030613Y022683D01*
X030589Y022646D01*
X030562Y022611D01*
X030531Y022579D01*
X030498Y022550D01*
X030462Y022524D01*
X030424Y022502D01*
X030384Y022483D01*
X030343Y022467D01*
X030300Y022455D01*
X030257Y022447D01*
X030213Y022443D01*
X030169Y022443D01*
X030125Y022447D01*
X030082Y022455D01*
X030039Y022467D01*
X029998Y022483D01*
X029958Y022502D01*
X029920Y022524D01*
X029884Y022550D01*
X029851Y022579D01*
X029820Y022611D01*
X029793Y022646D01*
X029769Y022683D01*
X029748Y022722D01*
X029730Y022762D01*
X029717Y022804D01*
X029707Y022847D01*
X029701Y022891D01*
X029699Y022935D01*
X032895Y022935D02*
X032897Y022979D01*
X032903Y023023D01*
X032913Y023066D01*
X032926Y023108D01*
X032944Y023148D01*
X032965Y023187D01*
X032989Y023224D01*
X033016Y023259D01*
X033047Y023291D01*
X033080Y023320D01*
X033116Y023346D01*
X033154Y023368D01*
X033194Y023387D01*
X033235Y023403D01*
X033278Y023415D01*
X033321Y023423D01*
X033365Y023427D01*
X033409Y023427D01*
X033453Y023423D01*
X033496Y023415D01*
X033539Y023403D01*
X033580Y023387D01*
X033620Y023368D01*
X033658Y023346D01*
X033694Y023320D01*
X033727Y023291D01*
X033758Y023259D01*
X033785Y023224D01*
X033809Y023187D01*
X033830Y023148D01*
X033848Y023108D01*
X033861Y023066D01*
X033871Y023023D01*
X033877Y022979D01*
X033879Y022935D01*
X033877Y022891D01*
X033871Y022847D01*
X033861Y022804D01*
X033848Y022762D01*
X033830Y022722D01*
X033809Y022683D01*
X033785Y022646D01*
X033758Y022611D01*
X033727Y022579D01*
X033694Y022550D01*
X033658Y022524D01*
X033620Y022502D01*
X033580Y022483D01*
X033539Y022467D01*
X033496Y022455D01*
X033453Y022447D01*
X033409Y022443D01*
X033365Y022443D01*
X033321Y022447D01*
X033278Y022455D01*
X033235Y022467D01*
X033194Y022483D01*
X033154Y022502D01*
X033116Y022524D01*
X033080Y022550D01*
X033047Y022579D01*
X033016Y022611D01*
X032989Y022646D01*
X032965Y022683D01*
X032944Y022722D01*
X032926Y022762D01*
X032913Y022804D01*
X032903Y022847D01*
X032897Y022891D01*
X032895Y022935D01*
X031891Y015848D02*
X031893Y015892D01*
X031899Y015936D01*
X031909Y015979D01*
X031922Y016021D01*
X031940Y016061D01*
X031961Y016100D01*
X031985Y016137D01*
X032012Y016172D01*
X032043Y016204D01*
X032076Y016233D01*
X032112Y016259D01*
X032150Y016281D01*
X032190Y016300D01*
X032231Y016316D01*
X032274Y016328D01*
X032317Y016336D01*
X032361Y016340D01*
X032405Y016340D01*
X032449Y016336D01*
X032492Y016328D01*
X032535Y016316D01*
X032576Y016300D01*
X032616Y016281D01*
X032654Y016259D01*
X032690Y016233D01*
X032723Y016204D01*
X032754Y016172D01*
X032781Y016137D01*
X032805Y016100D01*
X032826Y016061D01*
X032844Y016021D01*
X032857Y015979D01*
X032867Y015936D01*
X032873Y015892D01*
X032875Y015848D01*
X032873Y015804D01*
X032867Y015760D01*
X032857Y015717D01*
X032844Y015675D01*
X032826Y015635D01*
X032805Y015596D01*
X032781Y015559D01*
X032754Y015524D01*
X032723Y015492D01*
X032690Y015463D01*
X032654Y015437D01*
X032616Y015415D01*
X032576Y015396D01*
X032535Y015380D01*
X032492Y015368D01*
X032449Y015360D01*
X032405Y015356D01*
X032361Y015356D01*
X032317Y015360D01*
X032274Y015368D01*
X032231Y015380D01*
X032190Y015396D01*
X032150Y015415D01*
X032112Y015437D01*
X032076Y015463D01*
X032043Y015492D01*
X032012Y015524D01*
X031985Y015559D01*
X031961Y015596D01*
X031940Y015635D01*
X031922Y015675D01*
X031909Y015717D01*
X031899Y015760D01*
X031893Y015804D01*
X031891Y015848D01*
X031891Y002856D02*
X031893Y002900D01*
X031899Y002944D01*
X031909Y002987D01*
X031922Y003029D01*
X031940Y003069D01*
X031961Y003108D01*
X031985Y003145D01*
X032012Y003180D01*
X032043Y003212D01*
X032076Y003241D01*
X032112Y003267D01*
X032150Y003289D01*
X032190Y003308D01*
X032231Y003324D01*
X032274Y003336D01*
X032317Y003344D01*
X032361Y003348D01*
X032405Y003348D01*
X032449Y003344D01*
X032492Y003336D01*
X032535Y003324D01*
X032576Y003308D01*
X032616Y003289D01*
X032654Y003267D01*
X032690Y003241D01*
X032723Y003212D01*
X032754Y003180D01*
X032781Y003145D01*
X032805Y003108D01*
X032826Y003069D01*
X032844Y003029D01*
X032857Y002987D01*
X032867Y002944D01*
X032873Y002900D01*
X032875Y002856D01*
X032873Y002812D01*
X032867Y002768D01*
X032857Y002725D01*
X032844Y002683D01*
X032826Y002643D01*
X032805Y002604D01*
X032781Y002567D01*
X032754Y002532D01*
X032723Y002500D01*
X032690Y002471D01*
X032654Y002445D01*
X032616Y002423D01*
X032576Y002404D01*
X032535Y002388D01*
X032492Y002376D01*
X032449Y002368D01*
X032405Y002364D01*
X032361Y002364D01*
X032317Y002368D01*
X032274Y002376D01*
X032231Y002388D01*
X032190Y002404D01*
X032150Y002423D01*
X032112Y002445D01*
X032076Y002471D01*
X032043Y002500D01*
X032012Y002532D01*
X031985Y002567D01*
X031961Y002604D01*
X031940Y002643D01*
X031922Y002683D01*
X031909Y002725D01*
X031899Y002768D01*
X031893Y002812D01*
X031891Y002856D01*
M02*
