%
M48
M72
T01C0.0320
T02C0.0400
T03C0.0984
%
T01
X14100Y21506
X15100Y21506
X16100Y21506
X17100Y21506
X18100Y21506
X19100Y21506
X20100Y21506
X21100Y21506
X22100Y21506
X23100Y21506
X24100Y21506
X25100Y21506
X26100Y21506
X27100Y21506
X27100Y27506
X26100Y27506
X25100Y27506
X24100Y27506
X23100Y27506
X22100Y27506
X21100Y27506
X20100Y27506
X19100Y27506
X18100Y27506
X17100Y27506
X16100Y27506
X15100Y27506
X14100Y27506
X12100Y26006
X11100Y26006
X10100Y26006
X9100Y26006
X8100Y26006
X7100Y26006
X6100Y26006
X5100Y26006
X4100Y26006
X3100Y26006
X2100Y26006
X1100Y26006
X1100Y23006
X2100Y23006
X3100Y23006
X4100Y23006
X5100Y23006
X6100Y23006
X7100Y23006
X8100Y23006
X9100Y23006
X10100Y23006
X11100Y23006
X12100Y23006
X18072Y36364
X18072Y37364
X18072Y38364
X18072Y39364
X18072Y40364
X18072Y41364
X18072Y42364
X18072Y43364
X19072Y43364
X19072Y42364
X20072Y42364
X20072Y43364
X21072Y43364
X21072Y42364
X22072Y42364
X22072Y43364
X23072Y43364
X23072Y42364
X23072Y41364
X23072Y40364
X23072Y39364
X23072Y38364
X23072Y37364
X22072Y37364
X21072Y37364
X20072Y37364
X19072Y37364
X19072Y36364
X20072Y36364
X21072Y36364
X22072Y36364
X23072Y36364
X24072Y37364
X24072Y38364
X24072Y39364
X24072Y40364
X24072Y41364
X24072Y42364
X17072Y42364
X17072Y41364
X17072Y40364
X17072Y39364
X17072Y38364
X17072Y37364
X10419Y39261
X10419Y41580
X7419Y41580
X7419Y39261
T02
X5206Y39580
X5206Y40580
X5206Y41580
X10163Y35569
X10163Y34569
X10163Y33569
X10628Y30021
X11628Y30021
X12628Y30021
X13628Y30021
X14628Y30021
X15628Y30021
X16628Y30021
X17628Y30021
X18628Y30021
X19628Y30021
X20628Y30021
X21628Y30021
X22628Y30021
X23628Y30021
X31289Y36844
X32289Y36844
X24549Y18998
X23549Y18998
X22549Y18998
X21549Y18998
X20549Y18998
X19549Y18998
X18549Y18998
X17549Y18998
X16549Y18998
X15549Y18998
X14549Y18998
X13549Y18998
X12549Y18998
X11549Y18998
X10549Y18998
X9549Y18998
X8569Y18998
X8569Y19998
X8569Y20998
X7553Y20998
X6584Y20998
X6584Y19998
X7553Y19998
X7553Y18998
X6584Y18998
X5569Y18998
X5569Y19998
X5569Y20998
X4600Y20998
X4600Y19998
X4600Y18998
X3600Y18950
X3600Y19950
X3600Y20950
X4628Y30021
X5628Y30021
X6628Y30021
X7628Y30021
X8628Y30021
X9628Y30021
X7600Y34006
X6600Y34006
X5600Y34006
X3600Y34006
X2600Y34006
X1600Y34006
X2009Y9946
X2009Y8946
T03
X5218Y2856
X5218Y15848
X13880Y33171
X13880Y46557
X27265Y46557
X27265Y33171
X30191Y22935
X33387Y22935
X32383Y15848
X32383Y2856
M30
