G75*
G70*
%OFA0B0*%
%FSLAX24Y24*%
%IPPOS*%
%LPD*%
%AMOC8*
5,1,8,0,0,1.08239X$1,22.5*
%
%ADD10C,0.0740*%
%ADD11C,0.0520*%
%ADD12C,0.0520*%
%ADD13OC8,0.0520*%
%ADD14C,0.0600*%
%ADD15R,0.0740X0.0740*%
%ADD16C,0.0100*%
D10*
X002009Y008946D03*
X002009Y009946D03*
X003600Y018950D03*
X003600Y019950D03*
X003600Y020950D03*
X004600Y020998D03*
X004600Y019998D03*
X004600Y018998D03*
X005569Y018998D03*
X005569Y019998D03*
X005569Y020998D03*
X006584Y020998D03*
X007553Y020998D03*
X007553Y019998D03*
X006584Y019998D03*
X006584Y018998D03*
X007553Y018998D03*
X008569Y018998D03*
X008569Y019998D03*
X008569Y020998D03*
X009549Y018998D03*
X010549Y018998D03*
X011549Y018998D03*
X012549Y018998D03*
X013549Y018998D03*
X014549Y018998D03*
X015549Y018998D03*
X016549Y018998D03*
X017549Y018998D03*
X018549Y018998D03*
X019549Y018998D03*
X020549Y018998D03*
X021549Y018998D03*
X022549Y018998D03*
X023549Y018998D03*
X024549Y018998D03*
X023628Y030021D03*
X022628Y030021D03*
X021628Y030021D03*
X020628Y030021D03*
X019628Y030021D03*
X018628Y030021D03*
X017628Y030021D03*
X016628Y030021D03*
X015628Y030021D03*
X014628Y030021D03*
X013628Y030021D03*
X012628Y030021D03*
X011628Y030021D03*
X010628Y030021D03*
X009628Y030021D03*
X008628Y030021D03*
X007628Y030021D03*
X006628Y030021D03*
X005628Y030021D03*
X010163Y033569D03*
X010163Y034569D03*
X010163Y035569D03*
X031289Y036844D03*
X032289Y036844D03*
D11*
X027100Y027766D02*
X027100Y027246D01*
X026100Y027246D02*
X026100Y027766D01*
X025100Y027766D02*
X025100Y027246D01*
X024100Y027246D02*
X024100Y027766D01*
X023100Y027766D02*
X023100Y027246D01*
X022100Y027246D02*
X022100Y027766D01*
X021100Y027766D02*
X021100Y027246D01*
X020100Y027246D02*
X020100Y027766D01*
X019100Y027766D02*
X019100Y027246D01*
X018100Y027246D02*
X018100Y027766D01*
X017100Y027766D02*
X017100Y027246D01*
X016100Y027246D02*
X016100Y027766D01*
X015100Y027766D02*
X015100Y027246D01*
X014100Y027246D02*
X014100Y027766D01*
X012100Y026266D02*
X012100Y025746D01*
X011100Y025746D02*
X011100Y026266D01*
X010100Y026266D02*
X010100Y025746D01*
X009100Y025746D02*
X009100Y026266D01*
X008100Y026266D02*
X008100Y025746D01*
X007100Y025746D02*
X007100Y026266D01*
X006100Y026266D02*
X006100Y025746D01*
X005100Y025746D02*
X005100Y026266D01*
X004100Y026266D02*
X004100Y025746D01*
X003100Y025746D02*
X003100Y026266D01*
X002100Y026266D02*
X002100Y025746D01*
X001100Y025746D02*
X001100Y026266D01*
X001100Y023266D02*
X001100Y022746D01*
X002100Y022746D02*
X002100Y023266D01*
X003100Y023266D02*
X003100Y022746D01*
X004100Y022746D02*
X004100Y023266D01*
X005100Y023266D02*
X005100Y022746D01*
X006100Y022746D02*
X006100Y023266D01*
X007100Y023266D02*
X007100Y022746D01*
X008100Y022746D02*
X008100Y023266D01*
X009100Y023266D02*
X009100Y022746D01*
X010100Y022746D02*
X010100Y023266D01*
X011100Y023266D02*
X011100Y022746D01*
X012100Y022746D02*
X012100Y023266D01*
X014100Y021766D02*
X014100Y021246D01*
X015100Y021246D02*
X015100Y021766D01*
X016100Y021766D02*
X016100Y021246D01*
X017100Y021246D02*
X017100Y021766D01*
X018100Y021766D02*
X018100Y021246D01*
X019100Y021246D02*
X019100Y021766D01*
X020100Y021766D02*
X020100Y021246D01*
X021100Y021246D02*
X021100Y021766D01*
X022100Y021766D02*
X022100Y021246D01*
X023100Y021246D02*
X023100Y021766D01*
X024100Y021766D02*
X024100Y021246D01*
X025100Y021246D02*
X025100Y021766D01*
X026100Y021766D02*
X026100Y021246D01*
X027100Y021246D02*
X027100Y021766D01*
D12*
X021072Y042364D03*
D13*
X020072Y042364D03*
X020072Y043364D03*
X021072Y043364D03*
X022072Y043364D03*
X022072Y042364D03*
X023072Y042364D03*
X023072Y043364D03*
X024072Y042364D03*
X024072Y041364D03*
X024072Y040364D03*
X024072Y039364D03*
X024072Y038364D03*
X024072Y037364D03*
X023072Y037364D03*
X023072Y038364D03*
X023072Y039364D03*
X023072Y040364D03*
X023072Y041364D03*
X022072Y037364D03*
X021072Y037364D03*
X020072Y037364D03*
X019072Y037364D03*
X018072Y037364D03*
X018072Y038364D03*
X018072Y039364D03*
X018072Y040364D03*
X018072Y041364D03*
X018072Y042364D03*
X018072Y043364D03*
X019072Y043364D03*
X019072Y042364D03*
X017072Y042364D03*
X017072Y041364D03*
X017072Y040364D03*
X017072Y039364D03*
X017072Y038364D03*
X017072Y037364D03*
X018072Y036364D03*
X019072Y036364D03*
X020072Y036364D03*
X021072Y036364D03*
X022072Y036364D03*
X023072Y036364D03*
X010419Y039261D03*
X010419Y041580D03*
X007419Y041580D03*
X007419Y039261D03*
D14*
X005506Y039580D02*
X004906Y039580D01*
X004906Y040580D02*
X005506Y040580D01*
X005506Y041580D02*
X004906Y041580D01*
X005600Y034306D02*
X005600Y033706D01*
X006600Y033706D02*
X006600Y034306D01*
X007600Y034306D02*
X007600Y033706D01*
X003600Y033706D02*
X003600Y034306D01*
X002600Y034306D02*
X002600Y033706D01*
X001600Y033706D02*
X001600Y034306D01*
D15*
X004628Y030021D03*
D16*
X007406Y032800D01*
X012106Y032800D01*
X016606Y037300D01*
X017006Y037300D01*
X017072Y037364D01*
X018072Y037364D02*
X018106Y037400D01*
X018506Y037800D01*
X022606Y037800D01*
X023006Y037400D01*
X023072Y037364D01*
X022506Y036900D02*
X022106Y037300D01*
X022072Y037364D01*
X021506Y037300D02*
X021106Y037300D01*
X021072Y037364D01*
X020506Y037300D02*
X020106Y037300D01*
X020072Y037364D01*
X020506Y037300D02*
X020506Y036300D01*
X021106Y035700D01*
X024206Y035700D01*
X024206Y029800D01*
X023906Y029500D01*
X019006Y029500D01*
X017106Y027600D01*
X017100Y027506D01*
X016706Y027300D02*
X016706Y029500D01*
X017106Y029500D01*
X017628Y030021D01*
X019806Y029300D02*
X018106Y027600D01*
X018100Y027506D01*
X019100Y027506D02*
X019106Y027600D01*
X020406Y028900D01*
X023906Y028900D01*
X024606Y029600D01*
X024606Y036900D01*
X022506Y036900D01*
X022106Y036400D02*
X023006Y036400D01*
X023072Y036364D01*
X022106Y036400D02*
X022072Y036364D01*
X021906Y035900D02*
X021506Y036300D01*
X021506Y037300D01*
X021906Y035900D02*
X024406Y035900D01*
X024406Y029700D01*
X024006Y029300D01*
X019806Y029300D01*
X021206Y028700D02*
X020106Y027600D01*
X020100Y027506D01*
X021100Y027506D02*
X021106Y027600D01*
X022006Y028500D01*
X024106Y028500D01*
X025006Y029400D01*
X025006Y038900D01*
X023506Y038900D01*
X023106Y039300D01*
X023072Y039364D01*
X023072Y040364D02*
X023006Y040400D01*
X022606Y040400D01*
X022606Y042400D01*
X022206Y042800D01*
X020906Y042800D01*
X020806Y042700D01*
X020606Y042700D01*
X020606Y042300D01*
X020206Y041900D01*
X018606Y041900D01*
X018606Y042400D01*
X018206Y042800D01*
X017606Y042800D01*
X017606Y043500D01*
X018506Y044400D01*
X025806Y044400D01*
X025806Y029000D01*
X025706Y028900D01*
X025706Y027300D01*
X025206Y026800D01*
X025106Y026800D01*
X020906Y022600D01*
X020706Y022600D01*
X020706Y021300D01*
X020206Y020800D01*
X018706Y020800D01*
X018706Y024200D01*
X022006Y027500D01*
X022100Y027506D01*
X021206Y028700D02*
X024006Y028700D01*
X024806Y029500D01*
X024806Y037300D01*
X024106Y037300D01*
X024072Y037364D01*
X021006Y041700D02*
X021006Y042300D01*
X021072Y042364D01*
X020506Y042900D02*
X020006Y042400D01*
X020072Y042364D01*
X020506Y042900D02*
X020506Y043400D01*
X020906Y043800D01*
X025406Y043800D01*
X025406Y029200D01*
X024506Y028300D01*
X024506Y027000D01*
X019106Y021600D01*
X019100Y021506D01*
X018100Y021506D02*
X018006Y021600D01*
X014506Y025100D01*
X005106Y025100D01*
X004506Y025700D01*
X004506Y029500D01*
X004206Y029500D01*
X004106Y029600D01*
X004106Y033000D01*
X011106Y033000D01*
X017006Y038900D01*
X018206Y038900D01*
X021006Y041700D01*
X019506Y042400D02*
X019506Y043400D01*
X020106Y044000D01*
X025606Y044000D01*
X025606Y029100D01*
X024706Y028200D01*
X024706Y026900D01*
X020106Y022300D01*
X020106Y021600D01*
X020100Y021506D01*
X022106Y020400D02*
X011806Y020400D01*
X009506Y022700D01*
X009506Y024900D01*
X004306Y024900D01*
X003706Y025500D01*
X003706Y033200D01*
X006706Y033200D01*
X007106Y033600D01*
X007106Y039200D01*
X007406Y039200D01*
X007419Y039261D01*
X005306Y039700D02*
X010006Y039700D01*
X010406Y039300D01*
X010419Y039261D01*
X010506Y039300D01*
X017006Y039300D01*
X017072Y039364D01*
X017106Y039400D01*
X017506Y039400D01*
X017506Y041800D01*
X018006Y042300D01*
X018072Y042364D01*
X018006Y042400D01*
X017806Y042600D01*
X017406Y042600D01*
X017406Y043600D01*
X018406Y044600D01*
X026006Y044600D01*
X026006Y043100D01*
X032206Y036900D01*
X032289Y036844D01*
X027100Y027506D02*
X027006Y027500D01*
X026306Y026800D01*
X025706Y026800D01*
X025706Y022200D01*
X027506Y022200D01*
X027506Y021100D01*
X024406Y018000D01*
X002506Y018000D01*
X002506Y023300D01*
X002906Y023700D01*
X004306Y023700D01*
X004406Y023600D01*
X004506Y023600D01*
X004506Y022700D01*
X004906Y022300D01*
X005506Y022300D01*
X005506Y021000D01*
X005569Y020998D01*
X005100Y023006D02*
X005006Y023100D01*
X005006Y023400D01*
X004506Y023900D01*
X002106Y023900D01*
X002106Y026000D01*
X002100Y026006D01*
X002606Y026700D02*
X003306Y026700D01*
X003506Y026500D01*
X003506Y024100D01*
X007906Y024100D01*
X008706Y023300D01*
X008706Y021500D01*
X010406Y021500D01*
X012406Y019500D01*
X022006Y019500D01*
X022506Y019000D01*
X022549Y018998D01*
X023506Y019000D02*
X023549Y018998D01*
X023506Y019000D02*
X022106Y020400D01*
X023806Y018200D02*
X024506Y018900D01*
X024549Y018998D01*
X024506Y019000D01*
X027006Y021500D01*
X027100Y021506D01*
X025706Y021300D02*
X025706Y022200D01*
X025706Y021300D02*
X025006Y020600D01*
X018006Y020600D01*
X017106Y021500D01*
X017100Y021506D01*
X014706Y025300D02*
X016706Y027300D01*
X016100Y027506D02*
X016006Y027500D01*
X015206Y026700D01*
X009706Y026700D01*
X008006Y026700D01*
X004706Y030000D01*
X004628Y030021D01*
X002606Y026700D02*
X002606Y034000D01*
X002600Y034006D01*
X002306Y034800D02*
X004806Y034800D01*
X005206Y034800D01*
X005206Y039580D01*
X005206Y039600D01*
X005306Y039700D01*
X005206Y041580D02*
X005206Y041600D01*
X005606Y042000D01*
X010006Y042000D01*
X010406Y041600D01*
X010419Y041580D01*
X010163Y034569D02*
X010106Y034500D01*
X008006Y034500D01*
X007606Y034100D01*
X007600Y034006D01*
X005600Y034006D02*
X005506Y034100D01*
X004806Y034800D01*
X002306Y034800D02*
X001606Y034100D01*
X001600Y034006D01*
X005100Y026006D02*
X005106Y026000D01*
X005806Y025300D01*
X014706Y025300D01*
X014100Y027506D02*
X014006Y027600D01*
X012106Y029500D01*
X009206Y029500D01*
X008706Y030000D01*
X008628Y030021D01*
X009706Y026700D02*
X009106Y026100D01*
X009100Y026006D01*
X004100Y023006D02*
X004006Y023000D01*
X004006Y021500D01*
X003406Y021500D01*
X003006Y021100D01*
X003006Y018200D01*
X023806Y018200D01*
X024100Y027506D02*
X024106Y027600D01*
X024106Y028300D01*
X024206Y028300D01*
X025206Y029300D01*
X025206Y043300D01*
X023106Y043300D01*
X023072Y043364D01*
X019506Y042400D02*
X019106Y042400D01*
X019072Y042364D01*
M02*
