G75*
G70*
%OFA0B0*%
%FSLAX24Y24*%
%IPPOS*%
%LPD*%
%AMOC8*
5,1,8,0,0,1.08239X$1,22.5*
%
%ADD10C,0.0740*%
%ADD11C,0.0520*%
%ADD12C,0.0520*%
%ADD13OC8,0.0520*%
%ADD14C,0.0600*%
%ADD15R,0.0394X0.0551*%
%ADD16R,0.0512X0.0630*%
%ADD17R,0.0740X0.0740*%
%ADD18C,0.0100*%
D10*
X002009Y008946D03*
X002009Y009946D03*
X003600Y018950D03*
X003600Y019950D03*
X003600Y020950D03*
X004600Y020998D03*
X004600Y019998D03*
X004600Y018998D03*
X005569Y018998D03*
X005569Y019998D03*
X005569Y020998D03*
X006584Y020998D03*
X007553Y020998D03*
X007553Y019998D03*
X006584Y019998D03*
X006584Y018998D03*
X007553Y018998D03*
X008569Y018998D03*
X008569Y019998D03*
X008569Y020998D03*
X009549Y018998D03*
X010549Y018998D03*
X011549Y018998D03*
X012549Y018998D03*
X013549Y018998D03*
X014549Y018998D03*
X015549Y018998D03*
X016549Y018998D03*
X017549Y018998D03*
X018549Y018998D03*
X019549Y018998D03*
X020549Y018998D03*
X021549Y018998D03*
X022549Y018998D03*
X023549Y018998D03*
X024549Y018998D03*
X023628Y030021D03*
X022628Y030021D03*
X021628Y030021D03*
X020628Y030021D03*
X019628Y030021D03*
X018628Y030021D03*
X017628Y030021D03*
X016628Y030021D03*
X015628Y030021D03*
X014628Y030021D03*
X013628Y030021D03*
X012628Y030021D03*
X011628Y030021D03*
X010628Y030021D03*
X009628Y030021D03*
X008628Y030021D03*
X007628Y030021D03*
X006628Y030021D03*
X005628Y030021D03*
X010163Y033569D03*
X010163Y034569D03*
X010163Y035569D03*
X031289Y036844D03*
X032289Y036844D03*
D11*
X027100Y027766D02*
X027100Y027246D01*
X026100Y027246D02*
X026100Y027766D01*
X025100Y027766D02*
X025100Y027246D01*
X024100Y027246D02*
X024100Y027766D01*
X023100Y027766D02*
X023100Y027246D01*
X022100Y027246D02*
X022100Y027766D01*
X021100Y027766D02*
X021100Y027246D01*
X020100Y027246D02*
X020100Y027766D01*
X019100Y027766D02*
X019100Y027246D01*
X018100Y027246D02*
X018100Y027766D01*
X017100Y027766D02*
X017100Y027246D01*
X016100Y027246D02*
X016100Y027766D01*
X015100Y027766D02*
X015100Y027246D01*
X014100Y027246D02*
X014100Y027766D01*
X012100Y026266D02*
X012100Y025746D01*
X011100Y025746D02*
X011100Y026266D01*
X010100Y026266D02*
X010100Y025746D01*
X009100Y025746D02*
X009100Y026266D01*
X008100Y026266D02*
X008100Y025746D01*
X007100Y025746D02*
X007100Y026266D01*
X006100Y026266D02*
X006100Y025746D01*
X005100Y025746D02*
X005100Y026266D01*
X004100Y026266D02*
X004100Y025746D01*
X003100Y025746D02*
X003100Y026266D01*
X002100Y026266D02*
X002100Y025746D01*
X001100Y025746D02*
X001100Y026266D01*
X001100Y023266D02*
X001100Y022746D01*
X002100Y022746D02*
X002100Y023266D01*
X003100Y023266D02*
X003100Y022746D01*
X004100Y022746D02*
X004100Y023266D01*
X005100Y023266D02*
X005100Y022746D01*
X006100Y022746D02*
X006100Y023266D01*
X007100Y023266D02*
X007100Y022746D01*
X008100Y022746D02*
X008100Y023266D01*
X009100Y023266D02*
X009100Y022746D01*
X010100Y022746D02*
X010100Y023266D01*
X011100Y023266D02*
X011100Y022746D01*
X012100Y022746D02*
X012100Y023266D01*
X014100Y021766D02*
X014100Y021246D01*
X015100Y021246D02*
X015100Y021766D01*
X016100Y021766D02*
X016100Y021246D01*
X017100Y021246D02*
X017100Y021766D01*
X018100Y021766D02*
X018100Y021246D01*
X019100Y021246D02*
X019100Y021766D01*
X020100Y021766D02*
X020100Y021246D01*
X021100Y021246D02*
X021100Y021766D01*
X022100Y021766D02*
X022100Y021246D01*
X023100Y021246D02*
X023100Y021766D01*
X024100Y021766D02*
X024100Y021246D01*
X025100Y021246D02*
X025100Y021766D01*
X026100Y021766D02*
X026100Y021246D01*
X027100Y021246D02*
X027100Y021766D01*
D12*
X021072Y042364D03*
D13*
X020072Y042364D03*
X020072Y043364D03*
X021072Y043364D03*
X022072Y043364D03*
X022072Y042364D03*
X023072Y042364D03*
X023072Y043364D03*
X024072Y042364D03*
X024072Y041364D03*
X024072Y040364D03*
X024072Y039364D03*
X024072Y038364D03*
X024072Y037364D03*
X023072Y037364D03*
X023072Y038364D03*
X023072Y039364D03*
X023072Y040364D03*
X023072Y041364D03*
X022072Y037364D03*
X021072Y037364D03*
X020072Y037364D03*
X019072Y037364D03*
X018072Y037364D03*
X018072Y038364D03*
X018072Y039364D03*
X018072Y040364D03*
X018072Y041364D03*
X018072Y042364D03*
X018072Y043364D03*
X019072Y043364D03*
X019072Y042364D03*
X017072Y042364D03*
X017072Y041364D03*
X017072Y040364D03*
X017072Y039364D03*
X017072Y038364D03*
X017072Y037364D03*
X018072Y036364D03*
X019072Y036364D03*
X020072Y036364D03*
X021072Y036364D03*
X022072Y036364D03*
X023072Y036364D03*
X010419Y039261D03*
X010419Y041580D03*
X007419Y041580D03*
X007419Y039261D03*
D14*
X005506Y039580D02*
X004906Y039580D01*
X004906Y040580D02*
X005506Y040580D01*
X005506Y041580D02*
X004906Y041580D01*
X005600Y034306D02*
X005600Y033706D01*
X006600Y033706D02*
X006600Y034306D01*
X007600Y034306D02*
X007600Y033706D01*
X003600Y033706D02*
X003600Y034306D01*
X002600Y034306D02*
X002600Y033706D01*
X001600Y033706D02*
X001600Y034306D01*
D15*
X002009Y014757D03*
X001635Y013891D03*
X002383Y013891D03*
X029962Y039537D03*
X030710Y039537D03*
X030336Y038671D03*
D16*
X032403Y039273D03*
X033151Y039273D03*
X002443Y016635D03*
X001694Y016635D03*
D17*
X004628Y030021D03*
D18*
X000706Y038000D02*
X000706Y008200D01*
X014506Y008200D01*
X025106Y018800D01*
X025106Y019500D01*
X023706Y019500D01*
X022506Y020700D01*
X022506Y021100D01*
X022106Y021500D01*
X022100Y021506D01*
X021506Y021800D02*
X021506Y021100D01*
X021206Y020800D01*
X020706Y020800D01*
X020706Y028100D01*
X022628Y030021D01*
X023306Y028600D02*
X024406Y029700D01*
X024406Y034400D01*
X022606Y036200D01*
X022606Y040900D01*
X023006Y041300D01*
X023072Y041364D01*
X022506Y041400D02*
X018506Y037400D01*
X018506Y036800D01*
X018106Y036400D01*
X018072Y036364D01*
X018506Y035900D02*
X016606Y035900D01*
X016606Y041900D01*
X017006Y042300D01*
X017072Y042364D01*
X017606Y042800D02*
X017606Y040800D01*
X018006Y040400D01*
X018072Y040364D01*
X018006Y039900D02*
X018906Y039900D01*
X018906Y040600D01*
X020606Y042300D01*
X020606Y043500D01*
X021106Y044000D01*
X034006Y044000D01*
X034006Y028100D01*
X027506Y021600D01*
X027506Y021100D01*
X027006Y020600D01*
X022906Y020600D01*
X022906Y020800D01*
X022706Y021000D01*
X022706Y022000D01*
X022906Y022200D01*
X024006Y022200D01*
X024006Y021600D01*
X024100Y021506D01*
X023806Y020800D02*
X026706Y020800D01*
X026706Y022900D01*
X033806Y030000D01*
X033806Y039700D01*
X029706Y043800D01*
X021506Y043800D01*
X021506Y042200D01*
X018706Y039400D01*
X018106Y039400D01*
X018072Y039364D01*
X017606Y039500D02*
X018006Y039900D01*
X017606Y039500D02*
X017606Y038800D01*
X018006Y038400D01*
X018072Y038364D01*
X018006Y037400D02*
X018072Y037364D01*
X018006Y037400D02*
X017106Y037400D01*
X017072Y037364D01*
X017106Y037400D02*
X017106Y038300D01*
X017072Y038364D01*
X017106Y038400D01*
X017106Y039300D01*
X017072Y039364D01*
X018072Y042364D02*
X018106Y042400D01*
X019006Y043300D01*
X019072Y043364D01*
X019106Y043400D01*
X020006Y043400D01*
X020072Y043364D01*
X022506Y042800D02*
X022506Y041400D01*
X023072Y042364D02*
X023106Y042400D01*
X024006Y042400D01*
X024072Y042364D01*
X024106Y042300D01*
X024106Y041400D01*
X024072Y041364D01*
X024106Y041300D01*
X024106Y040400D01*
X024072Y040364D01*
X024006Y040300D01*
X023606Y039900D01*
X023606Y037900D01*
X023106Y037400D01*
X023072Y037364D01*
X023106Y037300D01*
X023106Y036400D01*
X023072Y036364D01*
X022072Y036364D02*
X022006Y036400D01*
X021106Y036400D01*
X021072Y036364D01*
X018506Y035900D02*
X024206Y030200D01*
X024206Y029800D01*
X022706Y028300D01*
X022706Y027300D01*
X021306Y025900D01*
X021306Y021800D01*
X021106Y021600D01*
X021100Y021506D01*
X021506Y021800D02*
X024606Y024900D01*
X024606Y040000D01*
X030306Y040000D01*
X030706Y039600D01*
X030710Y039537D01*
X030806Y039500D01*
X032306Y039500D01*
X032306Y039300D01*
X032403Y039273D01*
X032006Y039100D02*
X032006Y038900D01*
X032106Y038800D01*
X033106Y038800D01*
X033106Y039200D01*
X033151Y039273D01*
X033606Y039600D02*
X030406Y042800D01*
X022506Y042800D01*
X017606Y042800D02*
X005506Y042800D01*
X000706Y038000D01*
X003506Y034000D02*
X003600Y034006D01*
X003506Y034000D02*
X002106Y032600D01*
X002106Y026100D01*
X002100Y026006D01*
X004106Y028000D02*
X004106Y030500D01*
X004206Y030600D01*
X015606Y030600D01*
X015606Y030100D01*
X015628Y030021D01*
X014706Y030000D02*
X014628Y030021D01*
X014706Y030000D02*
X014706Y027000D01*
X017506Y024200D01*
X017506Y020400D01*
X013806Y020400D01*
X011706Y022500D01*
X011706Y023300D01*
X009706Y025300D01*
X009706Y026700D01*
X008706Y026700D01*
X008106Y026100D01*
X008100Y026006D01*
X008606Y025600D02*
X008606Y021000D01*
X008569Y020998D01*
X008606Y020900D01*
X008606Y020000D01*
X008569Y019998D01*
X008606Y019900D01*
X008606Y019000D01*
X008569Y018998D01*
X008506Y018900D01*
X008506Y018400D01*
X006506Y018400D01*
X006506Y017000D01*
X004606Y018900D01*
X004600Y018998D01*
X004606Y019000D01*
X004606Y019900D01*
X004600Y019998D01*
X004606Y020000D01*
X004606Y020900D01*
X004600Y020998D01*
X005506Y021000D02*
X005569Y020998D01*
X005606Y020900D01*
X005606Y020000D01*
X005569Y019998D01*
X005606Y019900D01*
X005606Y019000D01*
X005569Y018998D01*
X006506Y018900D02*
X006506Y018400D01*
X006506Y018900D02*
X006584Y018998D01*
X006606Y019000D01*
X006606Y019900D01*
X006584Y019998D01*
X006606Y020000D01*
X006606Y020900D01*
X006584Y020998D01*
X007506Y021000D02*
X006506Y022000D01*
X006506Y024500D01*
X005106Y023100D01*
X005100Y023006D01*
X005506Y021500D02*
X005506Y021000D01*
X005506Y021500D02*
X003706Y021500D01*
X003706Y030800D01*
X004606Y030800D01*
X007306Y033500D01*
X007306Y033800D01*
X007506Y034000D01*
X007600Y034006D01*
X007106Y033600D02*
X004506Y031000D01*
X002706Y031000D01*
X002706Y017400D01*
X002406Y017100D01*
X002406Y016700D01*
X002443Y016635D01*
X002406Y017100D02*
X001306Y017100D01*
X001306Y014200D01*
X001606Y013900D01*
X001635Y013891D01*
X002006Y014700D02*
X002009Y014757D01*
X002006Y014700D02*
X002006Y010000D01*
X002009Y009946D01*
X002106Y009000D02*
X002009Y008946D01*
X002106Y009000D02*
X006506Y013400D01*
X006506Y017000D01*
X007553Y018998D02*
X007606Y019000D01*
X007606Y019900D01*
X007553Y019998D01*
X007606Y020000D01*
X007606Y020900D01*
X007553Y020998D01*
X007506Y021000D01*
X006506Y024500D02*
X007006Y025000D01*
X007006Y026000D01*
X007100Y026006D01*
X007106Y026100D01*
X007106Y026900D01*
X010206Y026900D01*
X011006Y026100D01*
X011100Y026006D01*
X011506Y026500D02*
X011506Y025300D01*
X012306Y025300D01*
X016006Y021600D01*
X016100Y021506D01*
X015806Y020800D02*
X016506Y020800D01*
X016506Y022500D01*
X009706Y029300D01*
X006706Y029300D01*
X006706Y030000D01*
X006628Y030021D01*
X005706Y030000D02*
X005706Y029100D01*
X008906Y029100D01*
X011506Y026500D01*
X009100Y026006D02*
X009006Y026000D01*
X008606Y025600D01*
X006100Y026006D02*
X006006Y026100D01*
X004106Y028000D01*
X005628Y030021D02*
X005706Y030000D01*
X003906Y031400D02*
X002506Y031400D01*
X002506Y021200D01*
X001106Y019800D01*
X001106Y009100D01*
X001806Y008400D01*
X014406Y008400D01*
X014406Y011800D01*
X021506Y018900D01*
X021549Y018998D01*
X023806Y020800D02*
X023106Y021500D01*
X023100Y021506D01*
X025100Y021506D02*
X025106Y021600D01*
X033606Y030100D01*
X033606Y039600D01*
X032006Y039100D02*
X030406Y039100D01*
X030206Y039300D01*
X028306Y037400D01*
X028306Y028800D01*
X027106Y027600D01*
X027100Y027506D01*
X023306Y027800D02*
X023306Y028600D01*
X023306Y027800D02*
X023106Y027600D01*
X023100Y027506D01*
X018628Y030021D02*
X018606Y030100D01*
X016506Y032200D01*
X008106Y032200D01*
X008106Y034500D01*
X007806Y034800D01*
X007106Y034800D01*
X007106Y033600D01*
X006600Y034006D02*
X006506Y034000D01*
X003906Y031400D01*
X007628Y030021D02*
X007706Y030000D01*
X007706Y029500D01*
X009806Y029500D01*
X016706Y022600D01*
X016706Y020600D01*
X015006Y020600D01*
X014106Y021500D01*
X014100Y021506D01*
X015100Y021506D02*
X015106Y021500D01*
X015806Y020800D01*
X010163Y035569D02*
X010106Y035600D01*
X005206Y040500D01*
X005206Y040580D01*
X007406Y041500D02*
X007406Y039300D01*
X007419Y039261D01*
X007406Y041500D02*
X007419Y041580D01*
X003706Y021500D02*
X003406Y021500D01*
X003006Y021100D01*
X003006Y015900D01*
X002406Y015900D01*
X001706Y016600D01*
X001694Y016635D01*
X002406Y015900D02*
X002406Y013900D01*
X002383Y013891D01*
X003600Y018950D02*
X003606Y019000D01*
X003606Y019900D01*
X003600Y019950D01*
X003606Y020000D01*
X003606Y020900D01*
X003600Y020950D01*
X029962Y039537D02*
X030006Y039500D01*
X030206Y039300D01*
X030336Y038671D02*
X030406Y038600D01*
X031206Y037800D01*
X031206Y036900D01*
X031289Y036844D01*
M02*
